<svg xmlns="http://www.w3.org/2000/svg" xmlns:xlink="http://www.w3.org/1999/xlink" width="40" zoomAndPan="magnify" viewBox="0 0 30 30.000001" height="40" preserveAspectRatio="xMidYMid meet" version="1.0"><defs><clipPath id="1268e7210f"><path d="M 1.128906 0 L 28.707031 0 L 28.707031 29 L 1.128906 29 Z M 1.128906 0 " clip-rule="nonzero"/></clipPath><clipPath id="f4545e8011"><path d="M 1.128906 0 L 28.707031 0 L 28.707031 29 L 1.128906 29 Z M 1.128906 0 " clip-rule="nonzero"/></clipPath><clipPath id="698fb9af5e"><path d="M 13.890625 27.949219 C 13.035156 27.851562 12.027344 27.652344 11.976562 27.570312 C 11.945312 27.519531 12.085938 27.445312 12.285156 27.40625 C 12.765625 27.3125 12.773438 27.3125 13.507812 27.40625 C 13.925781 27.457031 14.167969 27.441406 14.21875 27.359375 C 14.269531 27.269531 14.425781 27.285156 14.742188 27.414062 C 15.140625 27.574219 15.453125 27.582031 15.972656 27.441406 C 16.070312 27.417969 16.128906 27.460938 16.109375 27.550781 C 16.085938 27.660156 16.136719 27.683594 16.277344 27.621094 C 16.390625 27.574219 16.632812 27.546875 16.816406 27.554688 L 17.15625 27.574219 L 16.882812 27.382812 L 16.613281 27.1875 L 16.871094 27.09375 C 17.035156 27.03125 17.1875 27.042969 17.285156 27.128906 C 17.488281 27.296875 18.871094 27.175781 19.429688 26.941406 C 19.648438 26.851562 19.988281 26.773438 20.183594 26.769531 C 20.375 26.769531 20.660156 26.691406 20.816406 26.605469 C 21.128906 26.425781 21.378906 26.386719 21.378906 26.523438 C 21.378906 26.625 20.273438 27.121094 19.296875 27.457031 C 17.964844 27.914062 15.53125 28.132812 13.890625 27.949219 Z M 16.898438 26.128906 C 16.492188 25.960938 16.265625 25.558594 16.449219 25.328125 C 16.53125 25.230469 16.519531 25.1875 16.410156 25.1875 C 16.300781 25.183594 16.292969 25.160156 16.382812 25.101562 C 16.457031 25.054688 16.546875 24.761719 16.589844 24.453125 C 16.632812 24.140625 16.734375 23.65625 16.8125 23.375 C 16.894531 23.09375 16.960938 22.765625 16.960938 22.640625 C 16.957031 22.398438 17.054688 21.644531 17.171875 21.015625 C 17.265625 20.511719 17.042969 20.125 16.507812 19.847656 C 16.269531 19.726562 16.046875 19.539062 16.015625 19.433594 C 15.847656 18.90625 15.457031 18.117188 15.148438 17.675781 C 14.84375 17.246094 15.050781 16.324219 15.550781 15.875 C 15.851562 15.601562 15.90625 15.484375 15.875 15.128906 C 15.855469 14.898438 15.796875 14.683594 15.746094 14.652344 C 15.699219 14.621094 15.652344 14.546875 15.644531 14.484375 C 15.640625 14.421875 15.570312 14.371094 15.496094 14.371094 C 15.417969 14.371094 15.367188 14.433594 15.382812 14.507812 C 15.417969 14.6875 14.742188 14.5625 14.53125 14.351562 C 14.449219 14.269531 14.332031 14.199219 14.277344 14.199219 C 14.21875 14.199219 14.171875 14.132812 14.171875 14.050781 C 14.171875 13.808594 13.695312 13.4375 13.269531 13.351562 C 13.054688 13.304688 12.765625 13.167969 12.628906 13.042969 C 12.464844 12.890625 12.195312 12.804688 11.8125 12.78125 C 11.222656 12.75 10.621094 12.460938 10.738281 12.269531 C 10.777344 12.210938 10.652344 12.160156 10.46875 12.160156 C 10.046875 12.160156 9.914062 11.972656 10.191406 11.753906 C 10.304688 11.664062 10.34375 11.605469 10.277344 11.621094 C 10.171875 11.648438 9.742188 11.203125 9.417969 10.746094 C 9.375 10.683594 9.183594 10.453125 8.996094 10.234375 L 8.652344 9.839844 L 8.832031 10.207031 C 8.925781 10.410156 9.050781 10.574219 9.109375 10.574219 C 9.164062 10.574219 9.179688 10.648438 9.148438 10.734375 C 9.113281 10.820312 9.140625 10.925781 9.207031 10.96875 C 9.273438 11.007812 9.328125 11.125 9.328125 11.222656 C 9.328125 11.378906 9.300781 11.378906 9.101562 11.199219 C 8.980469 11.085938 8.878906 10.921875 8.878906 10.835938 C 8.878906 10.75 8.800781 10.652344 8.707031 10.613281 C 8.601562 10.574219 8.558594 10.46875 8.597656 10.34375 C 8.632812 10.234375 8.609375 10.109375 8.542969 10.070312 C 8.480469 10.027344 8.425781 9.902344 8.425781 9.792969 C 8.425781 9.679688 8.304688 9.457031 8.15625 9.292969 C 7.742188 8.84375 7.628906 8.121094 7.875 7.507812 C 8.101562 6.945312 8.144531 6.496094 7.972656 6.496094 C 7.910156 6.496094 7.890625 6.378906 7.925781 6.226562 C 7.964844 6.078125 7.941406 5.921875 7.875 5.878906 C 7.804688 5.839844 7.75 5.882812 7.75 5.980469 C 7.75 6.078125 7.699219 6.15625 7.632812 6.15625 C 7.570312 6.15625 7.527344 6.042969 7.539062 5.902344 C 7.582031 5.417969 7.527344 5.25 7.324219 5.25 C 7.070312 5.25 6.273438 5.65625 6.160156 5.84375 C 6.109375 5.921875 6.03125 5.988281 5.980469 5.988281 C 5.933594 5.988281 5.660156 6.152344 5.371094 6.351562 C 5.085938 6.550781 4.820312 6.683594 4.785156 6.648438 C 4.75 6.613281 4.882812 6.472656 5.082031 6.335938 C 5.277344 6.203125 5.457031 5.992188 5.480469 5.871094 C 5.5 5.75 5.703125 5.484375 5.929688 5.28125 C 6.15625 5.078125 6.25 4.945312 6.132812 4.988281 C 5.808594 5.101562 5.960938 4.773438 6.3125 4.601562 C 6.472656 4.523438 6.632812 4.34375 6.667969 4.203125 C 6.757812 3.867188 7.535156 3.328125 7.9375 3.320312 C 8.113281 3.320312 8.5625 3.253906 8.933594 3.171875 C 9.304688 3.09375 9.796875 3.042969 10.023438 3.058594 C 10.367188 3.082031 10.4375 3.046875 10.425781 2.878906 C 10.410156 2.710938 10.371094 2.695312 10.210938 2.796875 C 10.101562 2.863281 9.980469 2.886719 9.9375 2.84375 C 9.828125 2.734375 10.109375 2.417969 10.3125 2.417969 C 10.410156 2.417969 10.453125 2.351562 10.417969 2.257812 C 10.378906 2.152344 10.496094 2.035156 10.769531 1.914062 C 11 1.8125 11.085938 1.753906 10.960938 1.78125 C 10.664062 1.851562 9.996094 2.085938 9.753906 2.207031 C 9.644531 2.261719 9.453125 2.304688 9.328125 2.304688 C 9.207031 2.304688 9.101562 2.351562 9.101562 2.40625 C 9.101562 2.503906 8.300781 2.828125 7.75 2.953125 C 7.507812 3.007812 7.523438 2.976562 7.863281 2.742188 C 9.082031 1.898438 10.167969 1.433594 11.839844 1.039062 C 12.695312 0.839844 13.230469 0.792969 14.902344 0.792969 C 16.921875 0.789062 18.441406 0.972656 18.105469 1.175781 C 18.023438 1.230469 17.914062 1.246094 17.859375 1.214844 C 17.808594 1.179688 17.238281 1.140625 16.597656 1.121094 C 15.613281 1.09375 15.4375 1.113281 15.488281 1.25 C 15.523438 1.339844 15.617188 1.386719 15.691406 1.359375 C 15.886719 1.285156 16.796875 1.761719 17.382812 2.246094 C 17.652344 2.464844 17.914062 2.644531 17.964844 2.644531 C 18.015625 2.644531 18.125 2.753906 18.207031 2.882812 C 18.332031 3.085938 18.324219 3.125 18.132812 3.175781 C 17.839844 3.25 17.761719 3.710938 17.949219 4.242188 C 18.03125 4.472656 18.070312 4.6875 18.042969 4.71875 C 17.9375 4.824219 17.273438 4.414062 16.839844 3.984375 C 16.601562 3.746094 16.351562 3.585938 16.285156 3.625 C 16.21875 3.667969 16.195312 3.648438 16.238281 3.582031 C 16.277344 3.519531 16.230469 3.398438 16.136719 3.320312 C 16.039062 3.242188 15.988281 3.109375 16.019531 3.023438 C 16.054688 2.9375 16.003906 2.871094 15.910156 2.871094 C 15.816406 2.871094 15.710938 2.796875 15.675781 2.703125 C 15.640625 2.609375 15.558594 2.53125 15.492188 2.53125 C 15.425781 2.53125 15.289062 2.457031 15.1875 2.367188 C 15.054688 2.242188 14.917969 2.226562 14.671875 2.300781 C 14.488281 2.355469 14.40625 2.40625 14.488281 2.410156 C 14.734375 2.425781 15.539062 3.3125 15.503906 3.527344 C 15.488281 3.632812 15.503906 3.777344 15.546875 3.839844 C 15.585938 3.90625 15.574219 4.035156 15.519531 4.125 C 15.433594 4.265625 15.34375 4.25 14.933594 4.035156 C 14.667969 3.894531 14.367188 3.777344 14.261719 3.777344 C 14.007812 3.777344 13.890625 3.566406 14.097656 3.484375 C 14.191406 3.449219 14.296875 3.347656 14.332031 3.253906 C 14.378906 3.125 14.339844 3.101562 14.171875 3.15625 C 14.003906 3.207031 13.945312 3.175781 13.945312 3.03125 C 13.945312 2.921875 13.914062 2.867188 13.871094 2.910156 C 13.832031 2.949219 13.742188 2.9375 13.675781 2.882812 C 13.589844 2.808594 13.550781 2.902344 13.554688 3.175781 C 13.554688 3.433594 13.625 3.609375 13.753906 3.679688 C 13.863281 3.742188 13.925781 3.832031 13.898438 3.878906 C 13.871094 3.925781 13.980469 3.945312 14.148438 3.921875 C 14.355469 3.890625 14.617188 3.988281 14.960938 4.21875 C 15.351562 4.484375 15.476562 4.527344 15.503906 4.398438 C 15.558594 4.144531 15.664062 4.191406 16.144531 4.6875 C 16.386719 4.9375 16.632812 5.125 16.695312 5.105469 C 16.820312 5.0625 17.117188 5.335938 17.386719 5.753906 C 17.578125 6.046875 17.851562 6.167969 17.71875 5.902344 C 17.679688 5.824219 17.75 5.882812 17.878906 6.027344 C 18.007812 6.175781 18.113281 6.378906 18.113281 6.480469 C 18.109375 6.644531 18.09375 6.644531 18 6.496094 C 17.902344 6.347656 17.890625 6.347656 17.882812 6.496094 C 17.875 6.613281 17.851562 6.625 17.8125 6.527344 C 17.722656 6.300781 17.234375 6.347656 17.253906 6.582031 C 17.261719 6.707031 17.175781 6.792969 17.015625 6.816406 C 16.875 6.835938 16.761719 6.90625 16.761719 6.972656 C 16.761719 7.046875 16.59375 7.070312 16.3125 7.03125 C 15.945312 6.984375 15.859375 7.007812 15.859375 7.160156 C 15.855469 7.261719 15.757812 7.472656 15.636719 7.628906 C 15.515625 7.785156 15.414062 7.984375 15.414062 8.070312 C 15.410156 8.199219 15.378906 8.199219 15.214844 8.070312 C 15.035156 7.925781 15.035156 7.9375 15.21875 8.226562 C 15.441406 8.574219 15.402344 8.6875 14.9375 9.082031 C 14.617188 9.351562 14.515625 9.816406 14.742188 9.957031 C 14.90625 10.058594 15.089844 10.570312 15.007812 10.703125 C 14.910156 10.863281 14.613281 10.582031 14.441406 10.164062 C 14.332031 9.910156 14.195312 9.792969 13.9375 9.742188 C 13.382812 9.628906 13.15625 9.65625 13.15625 9.828125 C 13.15625 9.929688 13.078125 9.96875 12.9375 9.929688 C 12.683594 9.863281 11.996094 10.253906 11.75 10.609375 C 11.53125 10.921875 11.535156 11.292969 11.757812 11.765625 C 11.964844 12.207031 12.132812 12.292969 12.597656 12.199219 C 12.828125 12.152344 12.957031 12.046875 13.003906 11.863281 C 13.039062 11.714844 13.128906 11.589844 13.199219 11.585938 C 13.269531 11.582031 13.414062 11.5625 13.523438 11.539062 C 13.816406 11.484375 13.863281 11.660156 13.660156 12.054688 C 13.5625 12.25 13.507812 12.4375 13.542969 12.472656 C 13.578125 12.507812 13.546875 12.609375 13.476562 12.695312 C 13.371094 12.824219 13.421875 12.84375 13.773438 12.804688 C 14.46875 12.726562 14.609375 12.804688 14.601562 13.289062 C 14.589844 14.101562 14.851562 14.441406 15.304688 14.195312 C 15.453125 14.117188 15.589844 14.117188 15.742188 14.195312 C 16.03125 14.351562 16.042969 14.351562 16.289062 14.082031 C 16.40625 13.957031 16.597656 13.835938 16.71875 13.808594 C 16.835938 13.785156 17.027344 13.726562 17.144531 13.679688 C 17.296875 13.621094 17.335938 13.636719 17.28125 13.726562 C 17.234375 13.800781 17.253906 13.859375 17.316406 13.859375 C 17.382812 13.859375 17.4375 13.8125 17.4375 13.753906 C 17.4375 13.695312 17.574219 13.71875 17.738281 13.804688 C 17.90625 13.890625 18.089844 13.929688 18.152344 13.894531 C 18.210938 13.855469 18.226562 13.878906 18.1875 13.945312 C 18.148438 14.007812 18.230469 14.09375 18.367188 14.128906 C 18.722656 14.226562 18.8125 14.214844 18.738281 14.09375 C 18.703125 14.035156 18.730469 13.953125 18.804688 13.90625 C 18.886719 13.855469 18.90625 13.875 18.855469 13.957031 C 18.78125 14.078125 18.9375 14.132812 19.324219 14.117188 C 19.402344 14.113281 19.464844 14.195312 19.46875 14.296875 C 19.46875 14.558594 20.238281 15.167969 20.667969 15.253906 C 21.105469 15.339844 21.492188 15.652344 21.492188 15.917969 C 21.492188 16.023438 21.546875 16.144531 21.613281 16.1875 C 21.691406 16.234375 21.664062 16.347656 21.53125 16.503906 C 21.417969 16.640625 21.402344 16.6875 21.488281 16.609375 C 21.617188 16.496094 21.78125 16.542969 22.363281 16.863281 C 22.753906 17.082031 23.167969 17.257812 23.28125 17.257812 C 23.394531 17.257812 23.574219 17.355469 23.679688 17.476562 C 23.789062 17.597656 23.949219 17.667969 24.035156 17.636719 C 24.152344 17.589844 24.195312 17.667969 24.195312 17.917969 C 24.195312 18.160156 24.046875 18.433594 23.695312 18.851562 C 23.417969 19.175781 23.160156 19.601562 23.117188 19.792969 C 23 20.328125 22.496094 20.976562 22.082031 21.117188 C 21.882812 21.183594 21.71875 21.3125 21.71875 21.398438 C 21.71875 21.488281 21.578125 21.648438 21.40625 21.757812 C 21.238281 21.867188 21.007812 22.074219 20.894531 22.210938 C 20.339844 22.898438 19.738281 23.382812 19.488281 23.335938 C 19.292969 23.304688 19.238281 23.339844 19.261719 23.488281 C 19.296875 23.695312 19.054688 24.054688 18.878906 24.054688 C 18.820312 24.054688 18.5 24.292969 18.164062 24.585938 C 17.753906 24.941406 17.59375 25.144531 17.683594 25.203125 C 17.78125 25.261719 17.738281 25.355469 17.542969 25.519531 C 17.285156 25.738281 17.28125 25.765625 17.464844 25.910156 C 17.574219 25.992188 17.664062 26.089844 17.664062 26.121094 C 17.664062 26.265625 17.238281 26.269531 16.898438 26.128906 Z M 16.445312 6.648438 C 16.363281 6.613281 16.265625 6.617188 16.230469 6.65625 C 16.191406 6.691406 16.257812 6.71875 16.375 6.714844 C 16.507812 6.710938 16.535156 6.683594 16.445312 6.648438 Z M 17.207031 6.132812 C 17.210938 6.089844 17.136719 6.082031 17.042969 6.117188 C 16.945312 6.15625 16.875 6.117188 16.871094 6.027344 C 16.871094 5.902344 16.851562 5.902344 16.769531 6.035156 C 16.710938 6.128906 16.71875 6.300781 16.792969 6.464844 L 16.917969 6.734375 L 17.058594 6.476562 C 17.140625 6.332031 17.207031 6.175781 17.207031 6.132812 Z M 13.609375 6.453125 C 13.609375 6.429688 13.492188 6.332031 13.351562 6.242188 C 13.121094 6.089844 13.070312 6.089844 12.859375 6.261719 C 12.632812 6.445312 12.640625 6.449219 13.117188 6.472656 C 13.386719 6.484375 13.609375 6.472656 13.609375 6.453125 Z M 13.335938 5.867188 C 13.132812 5.71875 13.132812 5.707031 13.328125 5.632812 C 13.4375 5.589844 13.71875 5.605469 13.953125 5.667969 C 14.3125 5.761719 14.367188 5.753906 14.308594 5.609375 C 14.269531 5.5 14.292969 5.46875 14.375 5.523438 C 14.449219 5.566406 14.597656 5.550781 14.707031 5.488281 C 14.886719 5.382812 14.882812 5.371094 14.664062 5.367188 C 14.480469 5.367188 14.425781 5.292969 14.425781 5.0625 C 14.425781 4.894531 14.328125 4.6875 14.214844 4.605469 C 14.097656 4.519531 14.015625 4.425781 14.03125 4.398438 C 14.109375 4.253906 14.039062 4.117188 13.890625 4.117188 C 13.796875 4.117188 13.722656 4.0625 13.722656 3.996094 C 13.722656 3.929688 13.65625 3.894531 13.578125 3.925781 C 13.503906 3.953125 13.347656 3.929688 13.238281 3.871094 C 13.085938 3.789062 12.976562 3.84375 12.75 4.113281 C 12.589844 4.304688 12.421875 4.433594 12.371094 4.402344 C 12.320312 4.371094 12.25 4.421875 12.214844 4.515625 C 12.179688 4.605469 12.1875 4.671875 12.234375 4.65625 C 12.277344 4.644531 12.453125 4.777344 12.628906 4.953125 C 12.824219 5.152344 13.007812 5.246094 13.121094 5.203125 C 13.355469 5.113281 13.742188 5.234375 13.660156 5.371094 C 13.625 5.429688 13.519531 5.476562 13.425781 5.476562 C 13.328125 5.476562 13.289062 5.421875 13.335938 5.347656 C 13.386719 5.265625 13.367188 5.246094 13.285156 5.296875 C 13.214844 5.34375 13.183594 5.425781 13.21875 5.484375 C 13.253906 5.542969 13.230469 5.589844 13.164062 5.589844 C 13.097656 5.589844 13.046875 5.539062 13.046875 5.476562 C 13.046875 5.277344 12.621094 5.355469 12.566406 5.566406 C 12.507812 5.804688 12.769531 6.105469 12.878906 5.925781 C 12.929688 5.84375 12.996094 5.84375 13.09375 5.925781 C 13.171875 5.988281 13.269531 6.007812 13.308594 5.96875 C 13.347656 5.925781 13.382812 5.960938 13.382812 6.042969 C 13.382812 6.128906 13.421875 6.15625 13.46875 6.109375 C 13.511719 6.0625 13.453125 5.953125 13.335938 5.867188 Z M 14.171875 5.257812 C 14.171875 5.199219 14.222656 5.121094 14.28125 5.082031 C 14.347656 5.042969 14.367188 5.089844 14.328125 5.1875 C 14.253906 5.386719 14.171875 5.421875 14.171875 5.257812 Z M 12.757812 4.972656 C 12.636719 4.878906 12.597656 4.804688 12.667969 4.800781 C 12.882812 4.796875 13.15625 4.929688 13.15625 5.035156 C 13.15625 5.183594 13.003906 5.160156 12.757812 4.972656 Z M 16.535156 6.078125 C 16.535156 6.0625 16.441406 6 16.324219 5.9375 C 16.171875 5.855469 16.078125 5.863281 15.996094 5.960938 C 15.910156 6.066406 15.960938 6.101562 16.207031 6.101562 C 16.390625 6.101562 16.535156 6.089844 16.535156 6.078125 Z M 14.847656 5.816406 C 14.847656 5.753906 14.769531 5.703125 14.671875 5.703125 C 14.574219 5.703125 14.527344 5.753906 14.566406 5.816406 C 14.605469 5.878906 14.683594 5.929688 14.742188 5.929688 C 14.800781 5.929688 14.847656 5.878906 14.847656 5.816406 Z M 15.242188 5.816406 C 15.203125 5.753906 15.148438 5.703125 15.121094 5.703125 C 15.09375 5.703125 15.070312 5.753906 15.070312 5.816406 C 15.070312 5.878906 15.125 5.929688 15.191406 5.929688 C 15.257812 5.929688 15.28125 5.878906 15.242188 5.816406 Z M 11.582031 5.246094 C 11.4375 5.152344 11.460938 5.089844 11.722656 4.859375 C 11.890625 4.707031 12.03125 4.519531 12.03125 4.441406 C 12.03125 4.363281 11.960938 4.402344 11.871094 4.519531 C 11.785156 4.640625 11.675781 4.703125 11.628906 4.65625 C 11.582031 4.609375 11.601562 4.570312 11.675781 4.570312 C 11.746094 4.570312 11.804688 4.496094 11.804688 4.402344 C 11.804688 4.183594 11.59375 4.179688 11.507812 4.402344 C 11.472656 4.496094 11.398438 4.542969 11.34375 4.507812 C 11.285156 4.472656 11.269531 4.394531 11.304688 4.335938 C 11.339844 4.277344 11.316406 4.230469 11.257812 4.230469 C 11.195312 4.230469 11.113281 4.285156 11.074219 4.347656 C 11.035156 4.410156 10.949219 4.429688 10.886719 4.390625 C 10.808594 4.34375 10.824219 4.28125 10.921875 4.21875 C 11.046875 4.140625 11.042969 4.121094 10.90625 4.125 C 10.691406 4.128906 10.121094 4.449219 10.320312 4.453125 C 10.402344 4.457031 10.4375 4.503906 10.40625 4.5625 C 10.371094 4.617188 10.457031 4.640625 10.59375 4.609375 L 10.847656 4.558594 L 10.589844 4.714844 L 10.328125 4.871094 L 10.640625 5.011719 C 10.867188 5.117188 10.96875 5.121094 10.996094 5.027344 C 11.027344 4.9375 11.085938 4.941406 11.203125 5.039062 C 11.335938 5.148438 11.335938 5.191406 11.21875 5.269531 C 11.125 5.328125 11.191406 5.359375 11.410156 5.359375 C 11.675781 5.359375 11.710938 5.335938 11.582031 5.246094 Z M 11.152344 4.84375 C 10.992188 4.667969 11.101562 4.632812 11.339844 4.785156 C 11.421875 4.839844 11.449219 4.910156 11.394531 4.941406 C 11.34375 4.972656 11.234375 4.929688 11.152344 4.84375 Z M 15.574219 4.816406 C 15.511719 4.746094 15.296875 4.917969 15.296875 5.035156 C 15.296875 5.097656 15.367188 5.082031 15.457031 5 C 15.542969 4.921875 15.597656 4.835938 15.574219 4.816406 Z M 12.367188 4.980469 C 12.367188 4.957031 12.289062 4.90625 12.195312 4.867188 C 12.09375 4.828125 12.050781 4.847656 12.089844 4.914062 C 12.15625 5.019531 12.367188 5.070312 12.367188 4.980469 Z M 10.65625 3.832031 C 10.753906 3.746094 10.695312 3.714844 10.453125 3.722656 C 10.269531 3.726562 10.027344 3.828125 9.921875 3.949219 C 9.726562 4.164062 9.726562 4.164062 9.964844 3.964844 C 10.214844 3.753906 10.421875 3.871094 10.285156 4.148438 C 10.246094 4.226562 10.28125 4.210938 10.367188 4.117188 C 10.453125 4.023438 10.582031 3.894531 10.65625 3.832031 Z M 11.582031 4 C 11.582031 3.933594 11.53125 3.910156 11.46875 3.949219 C 11.40625 3.988281 11.355469 4.042969 11.355469 4.070312 C 11.355469 4.097656 11.40625 4.117188 11.46875 4.117188 C 11.53125 4.117188 11.582031 4.066406 11.582031 4 Z M 10.988281 3.132812 C 10.878906 3.105469 10.726562 3.105469 10.648438 3.136719 C 10.574219 3.167969 10.664062 3.191406 10.847656 3.191406 C 11.035156 3.1875 11.097656 3.164062 10.988281 3.132812 Z M 11.867188 3.007812 C 11.832031 2.972656 11.738281 3.007812 11.664062 3.085938 C 11.554688 3.195312 11.566406 3.210938 11.726562 3.148438 C 11.835938 3.105469 11.898438 3.042969 11.867188 3.007812 Z M 13.15625 2.867188 C 13.15625 2.808594 13.117188 2.757812 13.0625 2.757812 C 13.011719 2.757812 12.96875 2.832031 12.96875 2.925781 C 12.96875 3.015625 13.011719 3.0625 13.0625 3.03125 C 13.117188 3 13.15625 2.925781 13.15625 2.867188 Z M 12.707031 2.644531 C 12.640625 2.519531 12.621094 2.351562 12.667969 2.277344 C 12.71875 2.1875 12.679688 2.195312 12.558594 2.292969 C 12.375 2.441406 12.375 2.464844 12.554688 2.664062 C 12.800781 2.9375 12.859375 2.929688 12.707031 2.644531 Z M 12.132812 2.71875 C 12.109375 2.695312 11.9375 2.644531 11.75 2.601562 C 11.503906 2.546875 11.457031 2.558594 11.582031 2.640625 C 11.734375 2.746094 12.246094 2.816406 12.132812 2.71875 Z M 11.128906 2.410156 C 11.28125 2.300781 11.28125 2.292969 11.128906 2.339844 C 11.039062 2.367188 10.859375 2.335938 10.734375 2.273438 C 10.535156 2.167969 10.527344 2.175781 10.664062 2.34375 C 10.84375 2.5625 10.902344 2.570312 11.128906 2.410156 Z M 11.695312 2.253906 C 11.695312 2.148438 11.628906 2.113281 11.515625 2.15625 C 11.371094 2.210938 11.367188 2.242188 11.488281 2.320312 C 11.6875 2.449219 11.695312 2.445312 11.695312 2.253906 Z M 14.667969 2.191406 C 15.109375 2.191406 14.65625 1.945312 14.167969 1.917969 C 13.875 1.902344 13.640625 1.820312 13.554688 1.703125 C 13.351562 1.429688 13.269531 1.46875 13.269531 1.84375 C 13.269531 2.113281 13.308594 2.160156 13.488281 2.113281 C 13.609375 2.082031 13.820312 2.136719 13.960938 2.238281 C 14.132812 2.355469 14.257812 2.378906 14.328125 2.304688 C 14.390625 2.242188 14.542969 2.191406 14.667969 2.191406 Z M 12.144531 2.191406 C 12.144531 2.128906 12.089844 2.078125 12.023438 2.078125 C 11.960938 2.078125 11.9375 2.128906 11.976562 2.191406 C 12.011719 2.253906 12.066406 2.304688 12.09375 2.304688 C 12.121094 2.304688 12.144531 2.253906 12.144531 2.191406 Z M 15.207031 1.097656 C 15.125 1.0625 15.027344 1.066406 14.992188 1.105469 C 14.953125 1.140625 15.019531 1.167969 15.136719 1.164062 C 15.269531 1.160156 15.296875 1.132812 15.207031 1.097656 Z M 18.191406 25.90625 C 18.070312 25.789062 18.226562 25.640625 18.472656 25.640625 C 18.664062 25.640625 18.679688 25.667969 18.5625 25.808594 C 18.414062 25.992188 18.304688 26.023438 18.191406 25.90625 Z M 6.117188 23.152344 C 5.808594 22.789062 5.535156 22.511719 5.511719 22.535156 C 5.484375 22.558594 5.34375 22.414062 5.199219 22.214844 C 4.925781 21.84375 4.546875 21.574219 4.28125 21.566406 C 4.199219 21.566406 4.164062 21.613281 4.203125 21.671875 C 4.242188 21.738281 4.132812 21.730469 3.929688 21.660156 C 3.667969 21.570312 3.515625 21.378906 3.238281 20.789062 C 2.667969 19.574219 2.660156 19.542969 2.921875 19.402344 C 3.050781 19.332031 3.125 19.210938 3.089844 19.117188 C 3.054688 19.03125 3.078125 18.957031 3.136719 18.957031 C 3.199219 18.957031 3.246094 18.878906 3.246094 18.78125 C 3.246094 18.660156 3.332031 18.613281 3.5 18.636719 C 3.675781 18.664062 3.753906 18.617188 3.753906 18.484375 C 3.757812 18.378906 3.792969 18.257812 3.839844 18.210938 C 3.886719 18.164062 3.921875 18.183594 3.921875 18.25 C 3.921875 18.316406 4.074219 18.40625 4.261719 18.449219 C 4.445312 18.488281 4.597656 18.585938 4.597656 18.664062 C 4.597656 18.742188 4.738281 18.878906 4.90625 18.964844 C 5.078125 19.050781 5.246094 19.136719 5.28125 19.152344 C 5.3125 19.171875 5.320312 19.007812 5.296875 18.789062 C 5.238281 18.300781 5.453125 18.253906 5.554688 18.730469 C 5.597656 18.917969 5.671875 19.070312 5.726562 19.070312 C 5.777344 19.070312 5.882812 19.261719 5.957031 19.496094 C 6.035156 19.730469 6.203125 20.03125 6.332031 20.164062 C 6.671875 20.515625 6.851562 20.746094 6.851562 20.839844 C 6.851562 20.886719 6.929688 21.011719 7.027344 21.117188 C 7.265625 21.382812 7.320312 22.230469 7.121094 22.519531 C 7.035156 22.644531 6.964844 22.835938 6.964844 22.945312 C 6.964844 23.0625 6.847656 23.171875 6.675781 23.214844 C 6.394531 23.289062 6.390625 23.292969 6.621094 23.453125 C 6.84375 23.609375 6.933594 23.835938 6.765625 23.820312 C 6.71875 23.816406 6.429688 23.515625 6.117188 23.152344 Z M 7.003906 21.386719 C 6.964844 21.292969 6.910156 21.238281 6.882812 21.265625 C 6.851562 21.296875 6.863281 21.375 6.902344 21.441406 C 7.011719 21.621094 7.078125 21.585938 7.003906 21.386719 Z M 8.039062 23.613281 C 7.972656 23.503906 8.835938 23.035156 9.109375 23.035156 C 9.246094 23.03125 9.246094 23.015625 9.101562 22.921875 C 8.96875 22.835938 8.96875 22.8125 9.089844 22.808594 C 9.203125 22.808594 9.226562 22.714844 9.175781 22.46875 C 9.136719 22.277344 9.15625 22.128906 9.21875 22.128906 C 9.28125 22.128906 9.328125 22.179688 9.328125 22.242188 C 9.328125 22.304688 9.433594 22.460938 9.5625 22.59375 L 9.800781 22.828125 L 9.535156 23.015625 C 9.390625 23.121094 9.246094 23.203125 9.214844 23.203125 C 9.183594 23.203125 9 23.320312 8.804688 23.460938 C 8.429688 23.726562 8.144531 23.785156 8.039062 23.613281 Z M 9.125 20.859375 C 9.050781 20.785156 8.992188 20.683594 8.992188 20.632812 C 8.992188 20.46875 9.160156 20.539062 9.300781 20.769531 C 9.457031 21.019531 9.339844 21.078125 9.125 20.859375 Z M 26.84375 20.742188 C 26.886719 20.601562 26.972656 19.925781 27.027344 19.242188 C 27.089844 18.503906 27.203125 17.863281 27.304688 17.675781 C 27.453125 17.410156 27.460938 17.273438 27.347656 16.800781 C 27.273438 16.492188 27.25 16.042969 27.292969 15.789062 C 27.363281 15.375 27.347656 15.332031 27.132812 15.332031 C 27 15.332031 26.898438 15.257812 26.898438 15.164062 C 26.898438 14.949219 26.683594 14.949219 26.398438 15.167969 C 26.277344 15.257812 26.089844 15.304688 25.980469 15.269531 C 25.871094 15.234375 25.683594 15.257812 25.5625 15.324219 C 25.28125 15.476562 24.796875 15.109375 24.574219 14.578125 C 24.488281 14.371094 24.355469 14.214844 24.277344 14.226562 C 24.179688 14.25 24.140625 14.042969 24.140625 13.503906 C 24.140625 13.089844 24.179688 12.773438 24.226562 12.804688 C 24.277344 12.835938 24.304688 12.6875 24.292969 12.480469 C 24.28125 12.273438 24.367188 11.925781 24.484375 11.707031 C 24.601562 11.488281 24.699219 11.234375 24.703125 11.140625 C 24.703125 11.046875 24.753906 10.976562 24.816406 10.988281 C 24.96875 11.007812 25.574219 10.566406 25.496094 10.488281 C 25.460938 10.453125 25.519531 10.328125 25.621094 10.214844 C 25.722656 10.101562 25.769531 10.007812 25.71875 10.007812 C 25.671875 10.007812 25.703125 9.917969 25.789062 9.808594 C 25.925781 9.628906 25.921875 9.625 25.746094 9.765625 C 25.636719 9.851562 25.542969 9.890625 25.535156 9.851562 C 25.527344 9.8125 25.511719 9.71875 25.503906 9.640625 C 25.492188 9.5625 25.390625 9.515625 25.277344 9.535156 C 25.089844 9.570312 25.074219 9.523438 25.148438 9.140625 C 25.191406 8.902344 25.226562 8.585938 25.21875 8.441406 C 25.203125 8.023438 25.308594 7.957031 25.667969 8.144531 C 25.976562 8.304688 26 8.300781 26 8.109375 C 26 7.992188 25.871094 7.726562 25.714844 7.515625 C 25.382812 7.058594 25.378906 7.054688 25.632812 7.132812 C 25.808594 7.1875 25.8125 7.179688 25.648438 7.042969 C 25.453125 6.878906 25.441406 6.847656 25.421875 6.46875 C 25.410156 6.277344 25.394531 6.261719 25.355469 6.410156 C 25.328125 6.519531 25.238281 6.609375 25.160156 6.609375 C 24.953125 6.609375 24.851562 6.15625 25.042969 6.085938 C 25.125 6.050781 25.167969 5.953125 25.132812 5.863281 C 25.089844 5.746094 25.128906 5.722656 25.273438 5.777344 C 25.429688 5.839844 25.457031 5.8125 25.398438 5.660156 C 25.351562 5.539062 25.367188 5.492188 25.445312 5.539062 C 25.507812 5.582031 25.535156 5.6875 25.5 5.78125 C 25.464844 5.871094 25.5625 6.171875 25.714844 6.445312 C 25.867188 6.722656 25.964844 7.035156 25.933594 7.148438 C 25.902344 7.261719 25.933594 7.238281 26.007812 7.097656 C 26.117188 6.894531 26.09375 6.78125 25.886719 6.441406 C 25.746094 6.214844 25.65625 6.011719 25.683594 5.984375 C 25.75 5.917969 26.40625 6.863281 26.5 7.164062 C 26.542969 7.296875 26.613281 7.402344 26.660156 7.402344 C 26.832031 7.402344 28.023438 10.078125 28.023438 10.464844 C 28.023438 10.5625 27.945312 10.527344 27.796875 10.371094 C 27.589844 10.148438 27.347656 10.039062 27.347656 10.171875 C 27.347656 10.25 27.816406 11.027344 27.863281 11.027344 C 27.886719 11.027344 27.875 10.945312 27.835938 10.84375 C 27.777344 10.691406 27.800781 10.675781 27.972656 10.773438 C 28.085938 10.835938 28.1875 10.984375 28.199219 11.101562 C 28.210938 11.214844 28.253906 11.464844 28.292969 11.652344 C 28.332031 11.835938 28.4375 12.511719 28.53125 13.148438 C 28.707031 14.402344 28.621094 16.019531 28.296875 17.453125 C 28.210938 17.839844 28.136719 18.320312 28.136719 18.527344 C 28.136719 19.152344 27.917969 19.769531 27.671875 19.835938 C 27.550781 19.867188 27.328125 20.140625 27.171875 20.445312 C 26.882812 21.019531 26.699219 21.183594 26.84375 20.742188 Z M 27.59375 9.871094 C 27.515625 9.789062 27.460938 9.78125 27.460938 9.855469 C 27.460938 10.003906 27.59375 10.140625 27.671875 10.0625 C 27.703125 10.03125 27.667969 9.945312 27.59375 9.871094 Z M 27.296875 9.867188 C 27.203125 9.433594 26.820312 8.765625 26.664062 8.761719 C 26.457031 8.761719 26.171875 9.234375 26.246094 9.457031 C 26.273438 9.539062 26.394531 9.613281 26.511719 9.617188 C 27.097656 9.648438 27.234375 9.675781 27.222656 9.753906 C 27.203125 9.882812 27.230469 10.007812 27.285156 10.007812 C 27.308594 10.007812 27.316406 9.945312 27.296875 9.867188 Z M 11.46875 20.25 C 11.46875 20.152344 11.527344 20.089844 11.601562 20.117188 C 11.8125 20.1875 11.847656 20.429688 11.648438 20.429688 C 11.550781 20.429688 11.46875 20.347656 11.46875 20.25 Z M 11.863281 20.09375 C 11.824219 20.027344 11.871094 19.976562 11.96875 19.976562 C 12.167969 19.976562 12.195312 20.042969 12.039062 20.140625 C 11.980469 20.175781 11.902344 20.15625 11.863281 20.09375 Z M 9.507812 19.789062 C 9.414062 19.542969 9.539062 19.429688 9.671875 19.640625 C 9.804688 19.851562 9.808594 19.976562 9.679688 19.976562 C 9.625 19.976562 9.546875 19.894531 9.507812 19.789062 Z M 8.539062 18.621094 C 8.539062 18.5625 8.464844 18.539062 8.371094 18.578125 C 8.167969 18.65625 8.148438 18.464844 8.34375 18.300781 C 8.449219 18.210938 8.519531 18.253906 8.617188 18.457031 C 8.6875 18.605469 8.699219 18.730469 8.644531 18.730469 C 8.585938 18.730469 8.539062 18.679688 8.539062 18.621094 Z M 6.34375 18.476562 C 6.21875 18.40625 6.054688 18.257812 5.972656 18.144531 C 5.816406 17.925781 5.5 17.863281 5.5 18.050781 C 5.5 18.113281 5.398438 18.164062 5.273438 18.164062 C 5.152344 18.164062 5.050781 18.113281 5.050781 18.050781 C 5.050781 17.988281 4.949219 17.9375 4.824219 17.9375 C 4.699219 17.9375 4.597656 17.886719 4.597656 17.824219 C 4.597656 17.761719 4.648438 17.710938 4.710938 17.710938 C 4.933594 17.710938 4.558594 17.28125 4.171875 17.097656 C 3.917969 16.972656 3.808594 16.855469 3.851562 16.746094 C 3.890625 16.644531 3.851562 16.578125 3.753906 16.578125 C 3.65625 16.578125 3.617188 16.644531 3.65625 16.75 C 3.703125 16.871094 3.644531 16.917969 3.433594 16.917969 C 3.277344 16.917969 3.117188 16.867188 3.078125 16.804688 C 3.039062 16.742188 3.113281 16.691406 3.242188 16.691406 C 3.367188 16.691406 3.480469 16.640625 3.488281 16.578125 C 3.492188 16.515625 3.507812 16.417969 3.515625 16.359375 C 3.539062 16.191406 3.699219 16.074219 3.699219 16.226562 C 3.699219 16.300781 3.742188 16.335938 3.796875 16.304688 C 3.851562 16.269531 3.960938 16.316406 4.035156 16.410156 C 4.113281 16.503906 4.132812 16.578125 4.082031 16.578125 C 4.03125 16.578125 4.050781 16.636719 4.121094 16.710938 C 4.21875 16.808594 4.292969 16.808594 4.414062 16.703125 C 4.546875 16.59375 4.691406 16.621094 5.132812 16.847656 C 5.433594 17 5.75 17.207031 5.832031 17.304688 C 5.910156 17.402344 6.117188 17.484375 6.289062 17.484375 C 6.601562 17.484375 6.910156 17.242188 6.773438 17.105469 C 6.734375 17.066406 6.757812 17.03125 6.824219 17.03125 C 7.066406 17.03125 7.085938 17.257812 6.867188 17.492188 C 6.71875 17.652344 6.570312 17.707031 6.421875 17.660156 C 6.027344 17.535156 6.003906 17.839844 6.378906 18.179688 C 6.746094 18.507812 6.726562 18.6875 6.34375 18.476562 Z M 7.683594 18.144531 C 7.628906 18.058594 7.664062 18.035156 7.777344 18.078125 C 7.871094 18.117188 8 18.09375 8.0625 18.03125 C 8.140625 17.957031 8.203125 17.957031 8.253906 18.042969 C 8.292969 18.109375 8.3125 18.167969 8.292969 18.171875 C 7.9375 18.257812 7.75 18.25 7.683594 18.144531 Z M 2.613281 17.808594 C 2.558594 17.71875 2.378906 17.5625 2.210938 17.453125 C 1.777344 17.179688 1.617188 16.847656 1.867188 16.753906 C 1.972656 16.714844 2.019531 16.714844 1.976562 16.761719 C 1.863281 16.875 2.238281 17.269531 2.378906 17.179688 C 2.441406 17.140625 2.460938 17.164062 2.414062 17.238281 C 2.367188 17.3125 2.449219 17.394531 2.621094 17.4375 C 2.929688 17.515625 2.957031 17.570312 2.808594 17.808594 C 2.726562 17.941406 2.695312 17.941406 2.613281 17.808594 Z M 2.976562 17.777344 C 3.011719 17.6875 3.117188 17.585938 3.210938 17.546875 C 3.335938 17.5 3.367188 17.53125 3.316406 17.664062 C 3.277344 17.761719 3.246094 17.863281 3.246094 17.890625 C 3.246094 17.917969 3.171875 17.9375 3.082031 17.9375 C 2.984375 17.9375 2.941406 17.871094 2.976562 17.777344 Z M 7.300781 17.710938 C 7.148438 17.425781 7.277344 17.425781 7.640625 17.710938 C 7.917969 17.929688 7.917969 17.933594 7.671875 17.933594 C 7.535156 17.9375 7.367188 17.835938 7.300781 17.710938 Z M 3.699219 17.660156 C 3.699219 17.632812 3.75 17.578125 3.808594 17.542969 C 3.871094 17.503906 3.921875 17.523438 3.921875 17.589844 C 3.921875 17.65625 3.871094 17.710938 3.808594 17.710938 C 3.75 17.710938 3.699219 17.6875 3.699219 17.660156 Z M 4.101562 17.5 C 4.050781 17.421875 4.042969 17.324219 4.082031 17.289062 C 4.179688 17.1875 4.292969 17.335938 4.238281 17.5 C 4.199219 17.617188 4.171875 17.617188 4.101562 17.5 Z M 2.535156 17.070312 C 2.492188 17.027344 2.453125 16.761719 2.445312 16.472656 C 2.433594 16.039062 2.421875 16.007812 2.359375 16.289062 C 2.320312 16.472656 2.25 16.613281 2.207031 16.601562 C 2.160156 16.589844 2.074219 16.578125 2.019531 16.578125 C 1.792969 16.578125 1.777344 15.804688 2 15.257812 C 2.214844 14.722656 2.246094 14.730469 2.289062 15.34375 C 2.324219 15.777344 2.453125 15.925781 2.753906 15.867188 C 2.929688 15.835938 3.023438 15.871094 3.023438 15.972656 C 3.023438 16.054688 2.90625 16.128906 2.769531 16.132812 L 2.515625 16.140625 L 2.769531 16.242188 C 2.90625 16.296875 3.019531 16.410156 3.019531 16.488281 C 3.019531 16.601562 2.996094 16.601562 2.921875 16.480469 C 2.867188 16.398438 2.796875 16.375 2.761719 16.429688 C 2.726562 16.488281 2.746094 16.605469 2.800781 16.695312 C 2.859375 16.789062 2.902344 16.9375 2.898438 17.03125 C 2.894531 17.164062 2.878906 17.167969 2.832031 17.046875 C 2.789062 16.9375 2.746094 16.929688 2.691406 17.019531 C 2.648438 17.089844 2.578125 17.113281 2.535156 17.070312 Z M 13.738281 16.691406 C 13.796875 16.519531 13.976562 16.503906 14.03125 16.664062 C 14.058594 16.742188 13.992188 16.804688 13.890625 16.804688 C 13.789062 16.804688 13.71875 16.753906 13.738281 16.691406 Z M 4.269531 16.53125 C 4.265625 16.410156 4.292969 16.34375 4.328125 16.382812 C 4.367188 16.421875 4.371094 16.519531 4.335938 16.597656 C 4.300781 16.691406 4.273438 16.664062 4.269531 16.53125 Z M 1.492188 15.871094 C 1.363281 14.808594 1.363281 14.761719 1.449219 14.707031 C 1.492188 14.679688 1.5625 14.976562 1.605469 15.363281 C 1.648438 15.75 1.710938 16.183594 1.746094 16.324219 C 1.78125 16.464844 1.757812 16.578125 1.695312 16.578125 C 1.632812 16.578125 1.542969 16.261719 1.492188 15.871094 Z M 3.238281 16.550781 C 3.152344 16.261719 3.15625 15.957031 3.242188 15.804688 C 3.328125 15.660156 3.355469 15.730469 3.355469 16.097656 C 3.359375 16.363281 3.335938 16.578125 3.304688 16.578125 C 3.273438 16.578125 3.242188 16.566406 3.238281 16.550781 Z M 8.316406 15.613281 C 8.316406 15.519531 8.1875 15.382812 8.035156 15.3125 C 7.789062 15.199219 7.644531 14.992188 7.808594 14.992188 C 7.914062 14.992188 8.371094 15.273438 8.453125 15.390625 C 8.574219 15.554688 8.558594 15.785156 8.429688 15.785156 C 8.367188 15.785156 8.316406 15.707031 8.316406 15.613281 Z M 2.683594 14.878906 C 2.601562 14.726562 2.601562 14.652344 2.679688 14.652344 C 2.742188 14.652344 2.796875 14.574219 2.796875 14.476562 C 2.796875 14.378906 2.847656 14.332031 2.910156 14.371094 C 3.054688 14.460938 3.058594 15.105469 2.914062 15.105469 C 2.851562 15.105469 2.75 15.003906 2.683594 14.878906 Z M 2.121094 14.519531 C 2.125 14.4375 2.171875 14.292969 2.234375 14.199219 C 2.320312 14.0625 2.34375 14.074219 2.34375 14.277344 C 2.34375 14.414062 2.296875 14.558594 2.234375 14.597656 C 2.171875 14.632812 2.121094 14.597656 2.121094 14.519531 Z M 1.429688 14.171875 C 1.386719 13.039062 1.785156 10.449219 2.015625 10.367188 C 2.074219 10.347656 2.121094 10.214844 2.121094 10.074219 C 2.121094 9.769531 2.644531 8.425781 2.847656 8.214844 C 2.964844 8.089844 3.003906 8.097656 3.0625 8.25 C 3.105469 8.367188 3.085938 8.40625 3.007812 8.359375 C 2.925781 8.308594 2.910156 8.359375 2.957031 8.511719 C 3.007812 8.667969 2.957031 8.8125 2.808594 8.953125 C 2.570312 9.175781 2.347656 9.675781 2.347656 9.980469 C 2.347656 10.132812 2.375 10.128906 2.511719 9.945312 C 2.601562 9.824219 2.679688 9.585938 2.679688 9.414062 C 2.683594 9.242188 2.734375 9.101562 2.796875 9.101562 C 3 9.101562 2.914062 9.878906 2.65625 10.371094 C 2.4375 10.789062 2.398438 10.820312 2.367188 10.601562 C 2.347656 10.460938 2.289062 10.347656 2.238281 10.347656 C 2.019531 10.347656 1.910156 11.746094 2.121094 11.878906 C 2.308594 11.992188 2.257812 12.421875 2.066406 12.347656 C 1.816406 12.25 1.703125 12.578125 1.691406 13.40625 C 1.679688 14.523438 1.679688 14.539062 1.558594 14.539062 C 1.496094 14.539062 1.4375 14.375 1.429688 14.171875 Z M 2.484375 14.152344 C 2.519531 13.972656 2.492188 13.898438 2.398438 13.933594 C 2.222656 14 2.066406 13.074219 2.230469 12.914062 C 2.308594 12.832031 2.347656 12.894531 2.347656 13.121094 C 2.347656 13.324219 2.460938 13.574219 2.644531 13.765625 C 2.894531 14.027344 2.917969 14.105469 2.800781 14.253906 C 2.585938 14.511719 2.425781 14.460938 2.484375 14.152344 Z M 15.726562 12.25 C 15.832031 12.144531 15.890625 12.144531 15.996094 12.25 C 16.101562 12.355469 16.070312 12.386719 15.859375 12.386719 C 15.652344 12.386719 15.621094 12.355469 15.726562 12.25 Z M 16.425781 12.265625 C 16.425781 12.195312 16.496094 12.164062 16.582031 12.199219 C 16.671875 12.230469 16.773438 12.183594 16.808594 12.089844 C 16.847656 11.988281 16.929688 11.953125 17.015625 12.007812 C 17.09375 12.058594 17.265625 12.082031 17.398438 12.066406 C 17.53125 12.046875 17.675781 12.089844 17.714844 12.152344 C 17.757812 12.222656 17.699219 12.277344 17.585938 12.28125 C 17.472656 12.285156 17.167969 12.3125 16.902344 12.34375 C 16.582031 12.378906 16.425781 12.355469 16.425781 12.265625 Z M 17.976562 12.25 C 18.082031 12.144531 18.144531 12.144531 18.25 12.25 C 18.355469 12.355469 18.324219 12.386719 18.113281 12.386719 C 17.902344 12.386719 17.875 12.355469 17.976562 12.25 Z M 15.378906 11.640625 C 15.207031 11.546875 15.011719 11.507812 14.941406 11.550781 C 14.863281 11.597656 14.84375 11.578125 14.894531 11.5 C 14.945312 11.414062 14.886719 11.367188 14.734375 11.367188 C 14.605469 11.367188 14.519531 11.40625 14.550781 11.457031 C 14.582031 11.503906 14.507812 11.546875 14.386719 11.546875 C 14.089844 11.546875 14.117188 11.386719 14.441406 11.238281 C 14.660156 11.136719 14.847656 11.167969 15.398438 11.382812 C 16.074219 11.644531 16.277344 11.824219 15.890625 11.816406 C 15.78125 11.8125 15.550781 11.734375 15.378906 11.640625 Z M 25.433594 10.128906 C 25.433594 10.0625 25.484375 10.007812 25.546875 10.007812 C 25.609375 10.007812 25.660156 10.03125 25.660156 10.058594 C 25.660156 10.085938 25.609375 10.140625 25.546875 10.179688 C 25.484375 10.214844 25.433594 10.195312 25.433594 10.128906 Z M 25.660156 8.03125 C 25.660156 8.003906 25.710938 7.953125 25.773438 7.914062 C 25.835938 7.875 25.886719 7.898438 25.886719 7.960938 C 25.886719 8.027344 25.835938 8.082031 25.773438 8.082031 C 25.710938 8.082031 25.660156 8.058594 25.660156 8.03125 Z M 3.359375 7.472656 C 3.359375 7.378906 3.410156 7.273438 3.472656 7.234375 C 3.535156 7.195312 3.585938 7.238281 3.585938 7.332031 C 3.585938 7.425781 3.535156 7.535156 3.472656 7.574219 C 3.410156 7.613281 3.359375 7.566406 3.359375 7.472656 Z M 3.808594 7.464844 C 3.808594 7.4375 3.859375 7.386719 3.921875 7.347656 C 3.984375 7.308594 4.035156 7.332031 4.035156 7.394531 C 4.035156 7.460938 3.984375 7.515625 3.921875 7.515625 C 3.859375 7.515625 3.808594 7.492188 3.808594 7.464844 Z M 4.484375 6.84375 C 4.484375 6.777344 4.535156 6.722656 4.597656 6.722656 C 4.660156 6.722656 4.710938 6.746094 4.710938 6.773438 C 4.710938 6.800781 4.660156 6.855469 4.597656 6.894531 C 4.535156 6.933594 4.484375 6.910156 4.484375 6.84375 Z M 4.652344 5.8125 C 4.613281 5.75 4.523438 5.734375 4.449219 5.78125 C 4.375 5.824219 4.382812 5.777344 4.472656 5.667969 C 4.632812 5.46875 4.996094 5.410156 5.089844 5.566406 C 5.121094 5.617188 5.050781 5.71875 4.933594 5.792969 C 4.796875 5.878906 4.695312 5.886719 4.652344 5.8125 Z M 19.542969 4.21875 C 19.429688 4.152344 19.261719 4.128906 19.171875 4.164062 C 19.074219 4.199219 19.03125 4.179688 19.070312 4.117188 C 19.109375 4.054688 19.078125 4.003906 19.003906 4.003906 C 18.753906 4.003906 19.007812 3.855469 19.3125 3.820312 C 19.664062 3.785156 20.289062 4.078125 20.195312 4.234375 C 20.105469 4.378906 19.800781 4.367188 19.542969 4.21875 Z M 19.542969 4.21875 " clip-rule="nonzero"/></clipPath><radialGradient gradientTransform="matrix(1.000145, 0, 0, 0.999855, -26.074161, -20.427946)" gradientUnits="userSpaceOnUse" r="31.636066" cx="27.881621" id="a7835fe219" cy="18.721404" fx="27.881621" fy="18.721404"><stop stop-opacity="1" stop-color="rgb(22.521973%, 22.521973%, 23.31543%)" offset="0"/><stop stop-opacity="1" stop-color="rgb(22.210693%, 22.210693%, 22.993469%)" offset="0.015625"/><stop stop-opacity="1" stop-color="rgb(21.94519%, 21.94519%, 22.718811%)" offset="0.0273438"/><stop stop-opacity="1" stop-color="rgb(21.679688%, 21.679688%, 22.442627%)" offset="0.0390625"/><stop stop-opacity="1" stop-color="rgb(21.412659%, 21.412659%, 22.167969%)" offset="0.0507812"/><stop stop-opacity="1" stop-color="rgb(21.147156%, 21.147156%, 21.891785%)" offset="0.0625"/><stop stop-opacity="1" stop-color="rgb(20.881653%, 20.881653%, 21.617126%)" offset="0.0742188"/><stop stop-opacity="1" stop-color="rgb(20.614624%, 20.614624%, 21.340942%)" offset="0.0859375"/><stop stop-opacity="1" stop-color="rgb(20.349121%, 20.349121%, 21.066284%)" offset="0.0976562"/><stop stop-opacity="1" stop-color="rgb(20.083618%, 20.083618%, 20.791626%)" offset="0.109375"/><stop stop-opacity="1" stop-color="rgb(19.816589%, 19.816589%, 20.515442%)" offset="0.121094"/><stop stop-opacity="1" stop-color="rgb(19.551086%, 19.551086%, 20.240784%)" offset="0.132812"/><stop stop-opacity="1" stop-color="rgb(19.285583%, 19.285583%, 19.9646%)" offset="0.144531"/><stop stop-opacity="1" stop-color="rgb(19.018555%, 19.018555%, 19.689941%)" offset="0.15625"/><stop stop-opacity="1" stop-color="rgb(18.753052%, 18.753052%, 19.413757%)" offset="0.167969"/><stop stop-opacity="1" stop-color="rgb(18.487549%, 18.487549%, 19.139099%)" offset="0.179688"/><stop stop-opacity="1" stop-color="rgb(18.22052%, 18.22052%, 18.862915%)" offset="0.191406"/><stop stop-opacity="1" stop-color="rgb(17.955017%, 17.955017%, 18.588257%)" offset="0.203125"/><stop stop-opacity="1" stop-color="rgb(17.689514%, 17.689514%, 18.312073%)" offset="0.214844"/><stop stop-opacity="1" stop-color="rgb(17.422485%, 17.422485%, 18.037415%)" offset="0.226562"/><stop stop-opacity="1" stop-color="rgb(17.156982%, 17.156982%, 17.76123%)" offset="0.238281"/><stop stop-opacity="1" stop-color="rgb(16.891479%, 16.891479%, 17.486572%)" offset="0.25"/><stop stop-opacity="1" stop-color="rgb(16.668701%, 16.668701%, 17.256165%)" offset="0.261719"/><stop stop-opacity="1" stop-color="rgb(16.491699%, 16.491699%, 17.073059%)" offset="0.269531"/><stop stop-opacity="1" stop-color="rgb(16.314697%, 16.314697%, 16.889954%)" offset="0.277344"/><stop stop-opacity="1" stop-color="rgb(16.137695%, 16.137695%, 16.705322%)" offset="0.285156"/><stop stop-opacity="1" stop-color="rgb(15.960693%, 15.960693%, 16.522217%)" offset="0.292969"/><stop stop-opacity="1" stop-color="rgb(15.782166%, 15.782166%, 16.339111%)" offset="0.300781"/><stop stop-opacity="1" stop-color="rgb(15.605164%, 15.605164%, 16.156006%)" offset="0.308594"/><stop stop-opacity="1" stop-color="rgb(15.428162%, 15.428162%, 15.971375%)" offset="0.316406"/><stop stop-opacity="1" stop-color="rgb(15.25116%, 15.25116%, 15.788269%)" offset="0.324219"/><stop stop-opacity="1" stop-color="rgb(15.072632%, 15.072632%, 15.605164%)" offset="0.332031"/><stop stop-opacity="1" stop-color="rgb(14.89563%, 14.89563%, 15.420532%)" offset="0.339844"/><stop stop-opacity="1" stop-color="rgb(14.718628%, 14.718628%, 15.237427%)" offset="0.347656"/><stop stop-opacity="1" stop-color="rgb(14.541626%, 14.541626%, 15.054321%)" offset="0.355469"/><stop stop-opacity="1" stop-color="rgb(14.364624%, 14.364624%, 14.86969%)" offset="0.363281"/><stop stop-opacity="1" stop-color="rgb(14.186096%, 14.186096%, 14.686584%)" offset="0.371094"/><stop stop-opacity="1" stop-color="rgb(13.920593%, 13.920593%, 14.4104%)" offset="0.378906"/><stop stop-opacity="1" stop-color="rgb(13.565063%, 13.565063%, 14.044189%)" offset="0.394531"/><stop stop-opacity="1" stop-color="rgb(13.21106%, 13.21106%, 13.676453%)" offset="0.410156"/><stop stop-opacity="1" stop-color="rgb(12.857056%, 12.857056%, 13.308716%)" offset="0.425781"/><stop stop-opacity="1" stop-color="rgb(12.501526%, 12.501526%, 12.942505%)" offset="0.441406"/><stop stop-opacity="1" stop-color="rgb(12.147522%, 12.147522%, 12.574768%)" offset="0.457031"/><stop stop-opacity="1" stop-color="rgb(11.791992%, 11.791992%, 12.207031%)" offset="0.472656"/><stop stop-opacity="1" stop-color="rgb(11.437988%, 11.437988%, 11.84082%)" offset="0.488281"/><stop stop-opacity="1" stop-color="rgb(11.126709%, 11.126709%, 11.51886%)" offset="0.503906"/><stop stop-opacity="1" stop-color="rgb(10.861206%, 10.861206%, 11.244202%)" offset="0.515625"/><stop stop-opacity="1" stop-color="rgb(10.595703%, 10.595703%, 10.968018%)" offset="0.527344"/><stop stop-opacity="1" stop-color="rgb(10.328674%, 10.328674%, 10.693359%)" offset="0.539062"/><stop stop-opacity="1" stop-color="rgb(10.063171%, 10.063171%, 10.417175%)" offset="0.550781"/><stop stop-opacity="1" stop-color="rgb(9.797668%, 9.797668%, 10.142517%)" offset="0.5625"/><stop stop-opacity="1" stop-color="rgb(9.53064%, 9.53064%, 9.866333%)" offset="0.574219"/><stop stop-opacity="1" stop-color="rgb(9.265137%, 9.265137%, 9.591675%)" offset="0.585938"/><stop stop-opacity="1" stop-color="rgb(8.999634%, 8.999634%, 9.317017%)" offset="0.597656"/><stop stop-opacity="1" stop-color="rgb(8.732605%, 8.732605%, 9.040833%)" offset="0.609375"/><stop stop-opacity="1" stop-color="rgb(8.467102%, 8.467102%, 8.766174%)" offset="0.621094"/><stop stop-opacity="1" stop-color="rgb(8.24585%, 8.24585%, 8.535767%)" offset="0.632812"/><stop stop-opacity="1" stop-color="rgb(8.068848%, 8.068848%, 8.352661%)" offset="0.640625"/><stop stop-opacity="1" stop-color="rgb(7.89032%, 7.89032%, 8.169556%)" offset="0.648438"/><stop stop-opacity="1" stop-color="rgb(7.713318%, 7.713318%, 7.984924%)" offset="0.65625"/><stop stop-opacity="1" stop-color="rgb(7.536316%, 7.536316%, 7.801819%)" offset="0.664062"/><stop stop-opacity="1" stop-color="rgb(7.359314%, 7.359314%, 7.618713%)" offset="0.671875"/><stop stop-opacity="1" stop-color="rgb(7.180786%, 7.180786%, 7.434082%)" offset="0.679688"/><stop stop-opacity="1" stop-color="rgb(7.003784%, 7.003784%, 7.250977%)" offset="0.6875"/><stop stop-opacity="1" stop-color="rgb(6.738281%, 6.738281%, 6.974792%)" offset="0.695312"/><stop stop-opacity="1" stop-color="rgb(6.382751%, 6.382751%, 6.608582%)" offset="0.710938"/><stop stop-opacity="1" stop-color="rgb(6.028748%, 6.028748%, 6.240845%)" offset="0.726562"/><stop stop-opacity="1" stop-color="rgb(5.673218%, 5.673218%, 5.873108%)" offset="0.742188"/><stop stop-opacity="1" stop-color="rgb(5.363464%, 5.363464%, 5.552673%)" offset="0.757812"/><stop stop-opacity="1" stop-color="rgb(5.097961%, 5.097961%, 5.276489%)" offset="0.769531"/><stop stop-opacity="1" stop-color="rgb(4.830933%, 4.830933%, 5.001831%)" offset="0.78125"/><stop stop-opacity="1" stop-color="rgb(4.56543%, 4.56543%, 4.727173%)" offset="0.792969"/><stop stop-opacity="1" stop-color="rgb(4.299927%, 4.299927%, 4.450989%)" offset="0.804688"/><stop stop-opacity="1" stop-color="rgb(4.078674%, 4.078674%, 4.222107%)" offset="0.816406"/><stop stop-opacity="1" stop-color="rgb(3.900146%, 3.900146%, 4.037476%)" offset="0.824219"/><stop stop-opacity="1" stop-color="rgb(3.723145%, 3.723145%, 3.85437%)" offset="0.832031"/><stop stop-opacity="1" stop-color="rgb(3.546143%, 3.546143%, 3.671265%)" offset="0.839844"/><stop stop-opacity="1" stop-color="rgb(3.279114%, 3.279114%, 3.395081%)" offset="0.847656"/><stop stop-opacity="1" stop-color="rgb(2.92511%, 2.92511%, 3.027344%)" offset="0.863281"/><stop stop-opacity="1" stop-color="rgb(2.615356%, 2.615356%, 2.706909%)" offset="0.878906"/><stop stop-opacity="1" stop-color="rgb(2.348328%, 2.348328%, 2.432251%)" offset="0.890625"/><stop stop-opacity="1" stop-color="rgb(2.082825%, 2.082825%, 2.156067%)" offset="0.902344"/><stop stop-opacity="1" stop-color="rgb(1.861572%, 1.861572%, 1.927185%)" offset="0.914062"/><stop stop-opacity="1" stop-color="rgb(1.68457%, 1.68457%, 1.742554%)" offset="0.921875"/><stop stop-opacity="1" stop-color="rgb(1.417542%, 1.417542%, 1.467896%)" offset="0.929688"/><stop stop-opacity="1" stop-color="rgb(1.107788%, 1.107788%, 1.145935%)" offset="0.945312"/><stop stop-opacity="1" stop-color="rgb(0.886536%, 0.886536%, 0.917053%)" offset="0.957031"/><stop stop-opacity="1" stop-color="rgb(0.619507%, 0.619507%, 0.640869%)" offset="0.964844"/><stop stop-opacity="1" stop-color="rgb(0.354004%, 0.354004%, 0.366211%)" offset="0.980469"/><stop stop-opacity="1" stop-color="rgb(0.132751%, 0.132751%, 0.137329%)" offset="0.988281"/><stop stop-opacity="1" stop-color="rgb(0%, 0%, 0%)" offset="1"/></radialGradient></defs><g clip-path="url(#1268e7210f)"><path fill="#e4e4e4" d="M 28.65625 14.515625 C 28.65625 15.425781 28.566406 16.324219 28.390625 17.214844 C 28.214844 18.105469 27.953125 18.972656 27.609375 19.808594 C 27.265625 20.648438 26.839844 21.445312 26.339844 22.203125 C 25.835938 22.957031 25.265625 23.65625 24.628906 24.296875 C 23.988281 24.941406 23.292969 25.511719 22.542969 26.019531 C 21.792969 26.523438 21 26.949219 20.167969 27.296875 C 19.332031 27.644531 18.472656 27.90625 17.585938 28.082031 C 16.699219 28.261719 15.804688 28.347656 14.902344 28.347656 C 14 28.347656 13.105469 28.261719 12.21875 28.082031 C 11.332031 27.90625 10.472656 27.644531 9.640625 27.296875 C 8.804688 26.949219 8.011719 26.523438 7.261719 26.019531 C 6.511719 25.511719 5.816406 24.941406 5.175781 24.296875 C 4.539062 23.65625 3.96875 22.957031 3.46875 22.203125 C 2.964844 21.445312 2.542969 20.648438 2.195312 19.808594 C 1.851562 18.972656 1.589844 18.105469 1.414062 17.214844 C 1.238281 16.324219 1.148438 15.425781 1.148438 14.515625 C 1.148438 13.609375 1.238281 12.707031 1.414062 11.816406 C 1.589844 10.925781 1.851562 10.0625 2.195312 9.222656 C 2.542969 8.382812 2.964844 7.585938 3.46875 6.832031 C 3.96875 6.078125 4.539062 5.378906 5.175781 4.734375 C 5.816406 4.09375 6.511719 3.519531 7.261719 3.015625 C 8.011719 2.511719 8.804688 2.085938 9.640625 1.738281 C 10.472656 1.390625 11.332031 1.125 12.21875 0.949219 C 13.105469 0.773438 14 0.683594 14.902344 0.683594 C 15.804688 0.683594 16.699219 0.773438 17.585938 0.949219 C 18.472656 1.125 19.332031 1.390625 20.167969 1.738281 C 21 2.085938 21.792969 2.511719 22.542969 3.015625 C 23.292969 3.519531 23.988281 4.09375 24.628906 4.734375 C 25.265625 5.378906 25.835938 6.078125 26.339844 6.832031 C 26.839844 7.585938 27.265625 8.382812 27.609375 9.222656 C 27.953125 10.0625 28.214844 10.925781 28.390625 11.816406 C 28.566406 12.707031 28.65625 13.609375 28.65625 14.515625 Z M 28.65625 14.515625 " fill-opacity="1" fill-rule="evenodd"/></g><g clip-path="url(#f4545e8011)"><g clip-path="url(#698fb9af5e)"><path fill="url(#a7835fe219)" d="M 1.363281 0.789062 L 1.363281 28.132812 L 28.707031 28.132812 L 28.707031 0.789062 Z M 1.363281 0.789062 " fill-rule="nonzero"/></g></g></svg>